#!OML:ASF F:\VICON\USERDATA\INSTALL\Justin_Nancy\Justin_Nancy.ASF
:FULLY-SPECIFIED
:DEGREES
126
root 10.1887 16.7321 -1.49917 -9.04489 -62.0333 17.7597
lowerback 6.79164 -0.136775 -4.52526
upperback -0.995201 -0.557002 0.240482
thorax -4.80636 -0.149428 2.85442
lowerneck -14.8385 -6.85709 -13.3936
upperneck 21.6462 -8.45069 8.33987
head 10.3095 -4.16008 4.00801
rclavicle 4.42296e-014 1.27222e-014
rhumerus -25.8582 1.63323 -90.5167
rradius 44.1936
rwrist 5.81617
rhand -11.9737 12.0376
rfingers 7.12502
rthumb 14.0823 -17.4653
lclavicle 4.42296e-014 1.27222e-014
lhumerus -48.7551 24.3277 64.6745
lradius 18.0559
lwrist -18.0277
lhand -13.8513 22.5645
lfingers 7.12502
lthumb 12.2724 52.1844
rfemur -14.173 3.52948 35.36
rtibia 30.3303
rfoot -18.2465 6.79316
rtoes 8.87417
lfemur -27.2927 9.09041 -14.696
ltibia 74.7892
lfoot -10.0928 2.75703
ltoes -27.4006
127
root 10.1282 16.7075 -1.33034 -9.95353 -64.2862 18.9378
lowerback 6.60503 0.182093 -3.88977
upperback -0.818651 -0.081255 -0.074214
thorax -4.55447 0.0563499 2.11719
lowerneck -15.3514 -6.7226 -13.2404
upperneck 21.5024 -8.25418 8.51874
head 10.3303 -4.02066 4.06601
rclavicle 5.34731e-014 -5.56597e-015
rhumerus -25.3149 2.56761 -91.4951
rradius 45.9673
rwrist 4.97299
rhand -12.4288 12.2864
rfingers 7.12502
rthumb 13.6437 -17.2464
lclavicle 5.34731e-014 -5.56597e-015
lhumerus -48.1983 23.9801 65.2438
lradius 17.8034
lwrist -18.8088
lhand -14.3933 22.6136
lfingers 7.12502
lthumb 11.7498 52.2641
rfemur -13.9201 2.9714 35.292
rtibia 31.0009
rfoot -19.2926 6.61459
rtoes 8.21417
lfemur -28.5202 8.77397 -14.4798
ltibia 73.8835
lfoot -10.6817 4.16446
ltoes -29.1926
128
root 10.067 16.6861 -1.16359 -10.969 -66.4613 20.307
lowerback 6.78584 0.181111 -3.86077
upperback -0.964457 -0.086644 0.0207861
thorax -4.80864 0.0614646 2.20088
lowerneck -15.9062 -6.13164 -13.4559
upperneck 21.6639 -7.33507 8.69236
head 10.3945 -3.58619 4.30053
rclavicle -1.15295e-014 -1.59028e-015
rhumerus -25.1475 4.54977 -92.3327
rradius 47.5182
rwrist 4.79938
rhand -12.464 12.881
rfingers 7.12502
rthumb 13.6098 -16.6541
lclavicle -1.15295e-014 -1.59028e-015
lhumerus -48.6919 24.5724 65.292
lradius 17.6707
lwrist -19.1273
lhand -14.7863 22.4497
lfingers 7.12502
lthumb 11.3708 52.1214
rfemur -13.7457 3.13853 35.158
rtibia 31.7396
rfoot -20.1564 6.04435
rtoes 9.34653
lfemur -29.7471 8.1721 -14.1019
ltibia 72.7925
lfoot -10.5884 5.51141
ltoes -29.6335
129
root 10.0046 16.6665 -0.996569 -12.2639 -68.5669 22.0454
lowerback 6.38347 0.403461 -3.06409
upperback -0.637074 0.277711 -0.395214
thorax -4.25594 0.202425 1.2842
lowerneck -16.8412 -6.02303 -13.6118
upperneck 21.4405 -7.13969 9.34209
head 10.4977 -3.40595 4.57943
rclavicle -2.60408e-014 4.77083e-015
rhumerus -24.1137 5.20991 -93.2196
rradius 48.9637
rwrist 4.57366
rhand -12.3763 13.5287
rfingers 7.12502
rthumb 13.6944 -16.0008
lclavicle -2.60408e-014 4.77083e-015
lhumerus -47.4954 24.2183 65.8672
lradius 17.3855
lwrist -19.0274
lhand -14.3368 22.5928
lfingers 7.12502
lthumb 11.8043 52.2402
rfemur -13.6552 3.52531 34.9149
rtibia 32.5459
rfoot -21.2605 5.58847
rtoes 12.7273
lfemur -30.9458 7.69016 -13.8662
ltibia 71.5391
lfoot -11.1279 6.87991
ltoes -32.5866
130
root 9.93806 16.6236 -0.832654 -13.7407 -70.732 23.849
lowerback 6.47088 0.609951 -2.70944
upperback -0.622405 0.577638 -0.405703
thorax -4.29929 0.343166 1.0435
lowerneck -17.0771 -6.0071 -13.3738
upperneck 21.1245 -6.99701 8.86505
head 10.3816 -3.36028 4.37592
rclavicle 3.97569e-015 2.54444e-014
rhumerus -23.7973 6.66667 -93.8132
rradius 50.5992
rwrist 3.74758
rhand -12.54 13.5382
rfingers 7.12502
rthumb 13.5366 -16.0018
lclavicle 3.97569e-015 2.54444e-014
lhumerus -46.7007 23.3903 66.952
lradius 17.0416
lwrist -17.9662
lhand -14.7313 23.1132
lfingers 7.12502
lthumb 11.4239 52.7819
rfemur -13.4173 3.71711 34.8572
rtibia 33.18
rfoot -22.4832 5.00184
rtoes 14.2513
lfemur -32.0583 7.99393 -13.5584
ltibia 70.1197
lfoot -12.3732 8.13727
ltoes -26.1791
131
root 9.86532 16.5638 -0.664948 -15.7529 -72.8355 26.1119
lowerback 6.68397 0.707954 -2.48244
upperback -0.673303 0.721537 -0.350624
thorax -4.47565 0.412221 0.955793
lowerneck -17.039 -5.88378 -12.4271
upperneck 20.7989 -6.7273 7.51029
head 10.1367 -3.30498 3.76112
rclavicle 4.09496e-014 2.06736e-014
rhumerus -23.6375 8.57583 -94.5306
rradius 52.0792
rwrist 3.06815
rhand -13.0612 13.3323
rfingers 7.12502
rthumb 13.0342 -16.2405
lclavicle 4.09496e-014 2.06736e-014
lhumerus -46.2737 22.9201 67.7498
lradius 16.888
lwrist -16.6799
lhand -15.4896 23.5803
lfingers 7.12502
lthumb 10.6926 53.2882
rfemur -13.0757 3.71989 34.7601
rtibia 33.7116
rfoot -23.4452 3.94421
rtoes 9.19288
lfemur -33.0606 9.00864 -13.1748
ltibia 68.5052
lfoot -13.2419 9.2564
ltoes -24.0855
132
root 9.76119 16.5785 -0.508368 -19.6304 -74.6308 30.2874
lowerback 6.65777 0.653023 -2.53472
upperback -0.540777 0.643517 -0.408119
thorax -4.32014 0.370915 0.935036
lowerneck -17.5168 -5.58304 -12.1231
upperneck 20.5738 -6.16759 6.95513
head 10.053 -3.06878 3.58556
rclavicle -4.96962e-015 9.54166e-015
rhumerus -23.0112 10.4445 -95.2743
rradius 53.082
rwrist 3.05514
rhand -13.4322 13.5904
rfingers 7.12502
rthumb 12.6765 -16.0049
lclavicle -4.96962e-015 9.54166e-015
lhumerus -46.1741 23.7924 67.7327
lradius 16.941
lwrist -16.1982
lhand -15.7946 23.4391
lfingers 7.12502
lthumb 10.3983 53.162
rfemur -12.5014 3.58636 34.0433
rtibia 33.971
rfoot -24.2518 3.38057
rtoes 5.39544
lfemur -33.4651 7.8549 -13.3384
ltibia 66.2876
lfoot -11.1826 9.02501
ltoes -22.4614
133
root 9.65779 16.5736 -0.346209 -23.7717 -76.3328 34.64
lowerback 6.68953 0.732823 -2.40194
upperback -0.409639 0.75805 -0.47047
thorax -4.20301 0.421246 0.784826
lowerneck -17.9774 -5.3305 -12.3169
upperneck 20.3965 -5.71982 7.11977
head 10.0385 -2.84494 3.73649
rclavicle 6.36111e-015 1.19271e-014
rhumerus -22.4619 11.4351 -95.7466
rradius 54.0248
rwrist 3.60987
rhand -13.0857 14.4513
rfingers 7.12502
rthumb 13.0106 -15.123
lclavicle 6.36111e-015 1.19271e-014
lhumerus -46.463 25.1014 67.2351
lradius 17.1404
lwrist -16.8805
lhand -15.3788 23.061
lfingers 7.12502
lthumb 10.7993 52.7633
rfemur -11.8394 3.40344 33.511
rtibia 34.1009
rfoot -25.0233 3.44067
rtoes 9.03957
lfemur -33.9691 8.06223 -13.3148
ltibia 64.002
lfoot -10.2864 8.94285
ltoes -20.8519
134
root 9.56392 16.5536 -0.183022 -26.7619 -77.8475 37.9507
lowerback 6.85046 0.927531 -2.14062
upperback -0.43112 1.04002 -0.342081
thorax -4.32246 0.558094 0.739175
lowerneck -18.242 -5.13366 -11.9524
upperneck 20.1721 -5.3826 6.65039
head 9.9457 -2.70281 3.55183
rclavicle 8.15017e-015 3.18055e-015
rhumerus -22.1675 11.9278 -95.6638
rradius 55.1475
rwrist 4.56788
rhand -12.0625 15.1128
rfingers 7.12502
rthumb 13.9967 -14.396
lclavicle 8.15017e-015 3.18055e-015
lhumerus -46.8572 26.6471 66.6264
lradius 17.1351
lwrist -18.6233
lhand -15.5512 23.0632
lfingers 7.12502
lthumb 10.6331 52.7742
rfemur -11.3167 3.59511 33.4275
rtibia 33.9499
rfoot -25.5826 2.5464
rtoes 13.5607
lfemur -34.8203 8.62836 -13.0212
ltibia 61.5868
lfoot -11.2546 9.25756
ltoes -21.1187
135
root 9.47042 16.5391 -0.0164583 -29.3056 -78.9538 40.9762
lowerback 6.82377 0.955545 -1.07714
upperback -0.444384 1.14597 -0.76744
thorax -4.29365 0.581172 -0.308406
lowerneck -18.3774 -4.88329 -11.0493
upperneck 19.589 -5.18702 6.42877
head 9.70811 -2.55353 3.34514
rclavicle -1.05356e-014 2.14687e-014
rhumerus -21.9949 12.2943 -96.2224
rradius 56.5255
rwrist 5.17188
rhand -11.6813 15.358
rfingers 7.12502
rthumb 14.3641 -14.1251
lclavicle -1.05356e-014 2.14687e-014
lhumerus -46.2506 26.8043 66.2145
lradius 16.9844
lwrist -19.4238
lhand -16.0753 23.8916
lfingers 7.12502
lthumb 10.1275 53.6278
rfemur -11.0249 3.83878 33.3144
rtibia 33.7347
rfoot -26.4179 0.501761
rtoes 13.3496
lfemur -35.8811 8.23084 -12.7072
ltibia 59.0886
lfoot -12.6097 9.75523
ltoes -19.8351
136
root 9.37218 16.5178 0.133698 -32.4588 -80.2867 44.3421
lowerback 7.14626 1.08756 -0.323451
upperback -0.429866 1.37778 -0.839777
thorax -4.44121 0.677608 -0.837397
lowerneck -18.6072 -4.83293 -11.1309
upperneck 19.2789 -5.10983 6.70629
head 9.64286 -2.48225 3.46296
rclavicle 1.98785e-016 -1.59028e-015
rhumerus -21.9666 13.1724 -96.4537
rradius 57.9589
rwrist 4.98157
rhand -11.8264 15.1026
rfingers 7.12502
rthumb 14.2243 -14.3904
lclavicle 1.98785e-016 -1.59028e-015
lhumerus -45.579 26.8107 66.253
lradius 16.8752
lwrist -19.8536
lhand -15.6425 24.1028
lfingers 7.12502
lthumb 10.545 53.8183
rfemur -10.4318 4.23788 33.5049
rtibia 33.5044
rfoot -27.11 -1.67802
rtoes 10.5352
lfemur -36.5173 7.92386 -12.0416
ltibia 56.3531
lfoot -13.4247 10.1294
ltoes -17.835
137
root 9.27042 16.4974 0.256373 -36.9493 -81.825 48.9847
lowerback 7.7227 1.28224 -0.0133212
upperback -0.469127 1.67125 -0.625673
thorax -4.80131 0.816442 -0.837558
lowerneck -18.9201 -4.7738 -11.3008
upperneck 19.408 -4.91649 6.5884
head 9.72851 -2.41416 3.47583
rclavicle -3.45885e-014 1.59028e-014
rhumerus -21.8097 14.1372 -96.4512
rradius 59.0515
rwrist 4.79568
rhand -12.0415 14.9467
rfingers 7.12502
rthumb 14.017 -14.5607
lclavicle -3.45885e-014 1.59028e-014
lhumerus -45.1888 27.2083 66.2996
lradius 16.8775
lwrist -20.0801
lhand -15.3207 24.0683
lfingers 7.12502
lthumb 10.8554 53.7677
rfemur -9.74658 5.17677 33.9527
rtibia 33.3033
rfoot -27.464 -3.93623
rtoes 11.9343
lfemur -37.0033 8.41566 -11.5084
ltibia 53.304
lfoot -13.0087 9.83567
ltoes -18.1717
138
root 9.13476 16.5149 0.376367 -50.5433 -82.4373 62.7254
lowerback 7.94231 1.55535 -0.758212
upperback -0.353563 1.95131 -0.823723
thorax -4.81931 0.969617 -0.662345
lowerneck -19.1009 -4.53119 -10.6302
upperneck 19.2372 -4.60137 5.9825
head 9.63672 -2.27925 3.1925
rclavicle 3.77691e-015 -1.35174e-014
rhumerus -21.3947 14.576 -96.4606
rradius 59.7326
rwrist 5.2937
rhand -11.9757 15.1832
rfingers 7.12502
rthumb 14.0804 -14.3198
lclavicle 3.77691e-015 -1.35174e-014
lhumerus -44.4432 26.8508 66.8886
lradius 17.0635
lwrist -19.2811
lhand -16.9596 24.5754
lfingers 7.12502
lthumb 9.27434 54.3514
rfemur -8.77605 6.31007 32.8423
rtibia 33.1091
rfoot -28.0645 -4.5815
rtoes 12.6946
lfemur -36.7813 9.01699 -12.5145
ltibia 49.7711
lfoot -10.5865 9.2156
ltoes -19.2287
139
root 9.00262 16.5288 0.500825 -61.4118 -82.607 73.9326
lowerback 7.9803 1.6808 -1.11191
upperback -0.328508 2.07536 -0.974063
thorax -4.82138 1.03701 -0.635621
lowerneck -19.3386 -4.35173 -10.5035
upperneck 19.1426 -4.36339 6.01833
head 9.62162 -2.14926 3.2164
rclavicle 1.45113e-014 -2.22639e-014
rhumerus -21.2 14.8802 -96.4857
rradius 60.4557
rwrist 5.75144
rhand -12.2283 15.486
rfingers 7.12502
rthumb 13.837 -14.0337
lclavicle 1.45113e-014 -2.22639e-014
lhumerus -43.6393 26.3707 67.3988
lradius 17.2432
lwrist -18.6426
lhand -17.9357 24.4993
lfingers 7.12502
lthumb 8.33242 54.315
rfemur -8.12625 7.05665 31.842
rtibia 32.8839
rfoot -28.7349 -3.8549
rtoes 16.9914
lfemur -36.7977 8.86924 -13.0584
ltibia 46.1253
lfoot -7.88327 8.3872
ltoes -18.8074
